<?xml version="1.0" encoding="UTF-8" standalone="no"?><!DOCTYPE svg PUBLIC "-//W3C//DTD SVG 1.1//EN" "http://www.w3.org/Graphics/SVG/1.1/DTD/svg11.dtd"><!-- Generated by graphviz version 2.40.1 (20161225.0304)
 --><!-- Title: TruckSchedule Pages: 1 -->
<svg xmlns="http://www.w3.org/2000/svg"
    xmlns:xlink="http://www.w3.org/1999/xlink" width="1000pt" height="2039pt" viewBox="0.00 0.00 1000.03 2039.20">
    <g id="graph0" class="graph" transform="scale(1 1) rotate(0) translate(4 2035.2)">
        <title>TruckSchedule</title>
        <polygon fill="#ffffff" stroke="transparent" points="-4,4 -4,-2035.2 996.0288,-2035.2 996.0288,4 -4,4"/>
        <g id="clust1" class="cluster">
            <title>cluster_1</title>
            <polygon fill="none" stroke="#000000" points="361.1362,-1467.4 361.1362,-2023.2 674.1362,-2023.2 674.1362,-1467.4 361.1362,-1467.4"/>
            <text text-anchor="middle" x="517.6362" y="-2006.6" font-family="Times,serif" font-size="14.00" fill="#000000">Day 1</text>
        </g>
        <g id="clust2" class="cluster">
            <title>cluster_2</title>
            <polygon fill="none" stroke="#000000" points="682.1362,-1111.4 682.1362,-1644.4 869.1362,-1644.4 869.1362,-1111.4 682.1362,-1111.4"/>
            <text text-anchor="middle" x="775.6362" y="-1627.8" font-family="Times,serif" font-size="14.00" fill="#000000">Day 2</text>
        </g>
        <g id="clust3" class="cluster">
            <title>cluster_3</title>
            <polygon fill="none" stroke="#000000" points="578.1362,-616 578.1362,-1076.6 828.1362,-1076.6 828.1362,-616 578.1362,-616"/>
            <text text-anchor="middle" x="703.1362" y="-1060" font-family="Times,serif" font-size="14.00" fill="#000000">Day 3</text>
        </g>
        <g id="clust4" class="cluster">
            <title>cluster_4</title>
            <polygon fill="none" stroke="#000000" points="68.1362,-543 68.1362,-808.8 570.1362,-808.8 570.1362,-543 68.1362,-543"/>
            <text text-anchor="middle" x="319.1362" y="-792.2" font-family="Times,serif" font-size="14.00" fill="#000000">Day 4</text>
        </g>
        <g id="clust5" class="cluster">
            <title>cluster_5</title>
            <polygon fill="none" stroke="#000000" points="35.1362,-8 35.1362,-508.2 474.1362,-508.2 474.1362,-8 35.1362,-8"/>
            <text text-anchor="middle" x="254.6362" y="-491.6" font-family="Times,serif" font-size="14.00" fill="#000000">Day 5</text>
        </g>
        <!-- n1_1 -->
        <g id="node1" class="node">
            <title>n1_1</title>
            <polygon fill="none" stroke="#000000" points="513.1362,-1863.4016 481.1746,-1826.4992 545.0978,-1826.4992 513.1362,-1863.4016"/>
            <text text-anchor="middle" x="513.1362" y="-1834.6" font-family="Times,serif" font-size="14.00" fill="#000000">1</text>
        </g>
        <!-- n4_1 -->
        <g id="node4" class="node">
            <title>n4_1</title>
            <polygon fill="none" stroke="#000000" points="603.1362,-1710.7623 576.1362,-1723.2 549.1362,-1710.7623 549.1614,-1690.6377 603.111,-1690.6377 603.1362,-1710.7623"/>
            <text text-anchor="middle" x="576.1362" y="-1701" font-family="Times,serif" font-size="14.00" fill="#000000">4</text>
        </g>
        <!-- n1_1&#45;&gt;n4_1 -->
        <g id="edge12" class="edge">
            <title>n1_1-&gt;n4_1</title>
            <path fill="none" stroke="#d95f02" d="M519.7195,-1826.1006C526.1153,-1813.6651 536.0221,-1794.1419 544.1362,-1777 551.5127,-1761.4163 559.402,-1743.7274 565.5014,-1729.8064"/>
            <polygon fill="#d95f02" stroke="#d95f02" points="568.8056,-1730.9852 569.5934,-1720.4196 562.3888,-1728.1878 568.8056,-1730.9852"/>
            <text text-anchor="middle" x="564.5825" y="-1764.4" font-family="Times,serif" font-size="14.00" fill="#000000">2@2</text>
        </g>
        <!-- n1_1&#45;&gt;n4_1 -->
        <g id="edge31" class="edge">
            <title>n1_1-&gt;n4_1</title>
            <path fill="none" stroke="#e7298a" d="M534.7661,-1826.4681C551.1729,-1815.7568 572.4926,-1798.5834 582.1362,-1777 588.5609,-1762.6208 587.2147,-1745.018 584.1873,-1730.8406"/>
            <polygon fill="#e7298a" stroke="#e7298a" points="587.4878,-1729.6153 581.6453,-1720.777 580.7009,-1731.3296 587.4878,-1729.6153"/>
            <text text-anchor="middle" x="599.5825" y="-1764.4" font-family="Times,serif" font-size="14.00" fill="#000000">4@2</text>
        </g>
        <!-- n3_2 -->
        <g id="node7" class="node">
            <title>n3_2</title>
            <polygon fill="none" stroke="#000000" points="746.1362,-1410.1623 719.1362,-1422.6 692.1362,-1410.1623 692.1614,-1390.0377 746.111,-1390.0377 746.1362,-1410.1623"/>
            <text text-anchor="middle" x="719.1362" y="-1400.4" font-family="Times,serif" font-size="14.00" fill="#000000">3</text>
        </g>
        <!-- n1_1&#45;&gt;n3_2 -->
        <g id="edge57" class="edge">
            <title>n1_1-&gt;n3_2</title>
            <path fill="none" stroke="#e6ab02" d="M487.3861,-1833.8701C439.4038,-1823.9434 341.1362,-1799.8043 341.1362,-1768.6 341.1362,-1768.6 341.1362,-1768.6 341.1362,-1500.2 341.1362,-1430.3874 586.5358,-1411.0114 681.882,-1406.1178"/>
            <polygon fill="#e6ab02" stroke="#e6ab02" points="682.1338,-1409.6098 691.9514,-1405.6267 681.7927,-1402.6181 682.1338,-1409.6098"/>
            <text text-anchor="middle" x="354.5825" y="-1656.6" font-family="Times,serif" font-size="14.00" fill="#000000">6@1</text>
        </g>
        <!-- n4_2 -->
        <g id="node8" class="node">
            <title>n4_2</title>
            <polygon fill="none" stroke="#000000" points="861.1362,-1142.9623 834.1362,-1155.4 807.1362,-1142.9623 807.1614,-1122.8377 861.111,-1122.8377 861.1362,-1142.9623"/>
            <text text-anchor="middle" x="834.1362" y="-1133.2" font-family="Times,serif" font-size="14.00" fill="#000000">4</text>
        </g>
        <!-- n1_1&#45;&gt;n4_2 -->
        <g id="edge4" class="edge">
            <title>n1_1-&gt;n4_2</title>
            <path fill="none" stroke="#1b9e77" d="M535.5509,-1837.7148C626.7552,-1833.0065 965.1362,-1812.5749 965.1362,-1768.6 965.1362,-1768.6 965.1362,-1768.6 965.1362,-1314.3 965.1362,-1243.5407 896.6082,-1182.5981 858.6802,-1154.2873"/>
            <polygon fill="#1b9e77" stroke="#1b9e77" points="860.3453,-1151.1705 850.1994,-1148.1192 856.228,-1156.8316 860.3453,-1151.1705"/>
            <text text-anchor="middle" x="978.5825" y="-1444.8" font-family="Times,serif" font-size="14.00" fill="#000000">1@1</text>
        </g>
        <!-- n2_1 -->
        <g id="node2" class="node">
            <title>n2_1</title>
            <polygon fill="none" stroke="#000000" points="544.1362,-1524.8016 512.1746,-1487.8992 576.0978,-1487.8992 544.1362,-1524.8016"/>
            <text text-anchor="middle" x="544.1362" y="-1496" font-family="Times,serif" font-size="14.00" fill="#000000">2</text>
        </g>
        <!-- n2_1&#45;&gt;n4_1 -->
        <g id="edge2" class="edge">
            <title>n2_1-&gt;n4_1</title>
            <path fill="none" stroke="#1b9e77" d="M536.5615,-1516.3313C524.8706,-1543.5917 505.4468,-1600.1279 522.2436,-1644.4 527.8804,-1659.2572 538.9927,-1672.8125 549.6698,-1683.3345"/>
            <polygon fill="#1b9e77" stroke="#1b9e77" points="547.5828,-1686.174 557.283,-1690.4353 552.3574,-1681.055 547.5828,-1686.174"/>
            <text text-anchor="middle" x="535.5825" y="-1582.6" font-family="Times,serif" font-size="14.00" fill="#000000">1@2</text>
        </g>
        <!-- n2_1&#45;&gt;n3_2 -->
        <g id="edge47" class="edge">
            <title>n2_1-&gt;n3_2</title>
            <path fill="none" stroke="#66a61e" d="M566.6561,-1487.8977C598.8052,-1470.3351 657.7656,-1438.1259 692.1897,-1419.3205"/>
            <polygon fill="#66a61e" stroke="#66a61e" points="694.1078,-1422.2609 701.2057,-1414.3952 690.7518,-1416.1178 694.1078,-1422.2609"/>
            <text text-anchor="middle" x="665.5825" y="-1444.8" font-family="Times,serif" font-size="14.00" fill="#000000">5@1</text>
        </g>
        <!-- n3_3 -->
        <g id="node11" class="node">
            <title>n3_3</title>
            <polygon fill="none" stroke="#000000" points="712.1362,-875.1623 685.1362,-887.6 658.1362,-875.1623 658.1614,-855.0377 712.111,-855.0377 712.1362,-875.1623"/>
            <text text-anchor="middle" x="685.1362" y="-865.4" font-family="Times,serif" font-size="14.00" fill="#000000">3</text>
        </g>
        <!-- n2_1&#45;&gt;n3_3 -->
        <g id="edge25" class="edge">
            <title>n2_1-&gt;n3_3</title>
            <path fill="none" stroke="#7570b3" d="M517.9817,-1495.0202C458.0935,-1482.4113 316.1362,-1447.9513 316.1362,-1404.6 316.1362,-1404.6 316.1362,-1404.6 316.1362,-1227.7 316.1362,-1041.4717 419.6866,-992.9916 584.1362,-905.6 610.6067,-891.5331 621.1552,-898.3532 649.1362,-887.6 652.0428,-886.483 655.0284,-885.2094 657.9773,-883.8677"/>
            <polygon fill="#7570b3" stroke="#7570b3" points="659.6412,-886.9511 667.1309,-879.4575 656.6028,-880.6449 659.6412,-886.9511"/>
            <text text-anchor="middle" x="330.5825" y="-1196.6" font-family="Times,serif" font-size="14.00" fill="#000000">3@1</text>
        </g>
        <!-- n3_1 -->
        <g id="node3" class="node">
            <title>n3_1</title>
            <polygon fill="none" stroke="#000000" points="540.1362,-1977.9623 513.1362,-1990.4 486.1362,-1977.9623 486.1614,-1957.8377 540.111,-1957.8377 540.1362,-1977.9623"/>
            <text text-anchor="middle" x="513.1362" y="-1968.2" font-family="Times,serif" font-size="14.00" fill="#000000">3</text>
        </g>
        <!-- n3_1&#45;&gt;n1_1 -->
        <g id="edge56" class="edge">
            <title>n3_1-&gt;n1_1</title>
            <path fill="none" stroke="#e6ab02" d="M513.1362,-1957.592C513.1362,-1937.5598 513.1362,-1901.2023 513.1362,-1873.9667"/>
            <polygon fill="#e6ab02" stroke="#e6ab02" points="516.6363,-1873.6624 513.1362,-1863.6624 509.6363,-1873.6625 516.6363,-1873.6624"/>
            <text text-anchor="middle" x="526.5825" y="-1904.8" font-family="Times,serif" font-size="14.00" fill="#000000">6@1</text>
        </g>
        <!-- n4_1&#45;&gt;n1_1 -->
        <g id="edge3" class="edge">
            <title>n4_1-&gt;n1_1</title>
            <path fill="none" stroke="#1b9e77" d="M548.7901,-1709.549C503.8299,-1717.3481 417.625,-1735.2586 401.2436,-1760.2 379.0302,-1794.0208 435.9981,-1817.6486 476.5557,-1829.6639"/>
            <polygon fill="#1b9e77" stroke="#1b9e77" points="475.6242,-1833.0376 486.1997,-1832.3983 477.5337,-1826.3031 475.6242,-1833.0376"/>
            <text text-anchor="middle" x="414.5825" y="-1764.4" font-family="Times,serif" font-size="14.00" fill="#000000">1@3</text>
        </g>
        <!-- n4_1&#45;&gt;n1_1 -->
        <g id="edge11" class="edge">
            <title>n4_1-&gt;n1_1</title>
            <path fill="none" stroke="#d95f02" d="M548.9568,-1710.0794C522.1723,-1716.4905 482.6656,-1730.6175 464.2436,-1760.2 451.6463,-1780.429 470.0483,-1803.5956 487.7634,-1819.5091"/>
            <polygon fill="#d95f02" stroke="#d95f02" points="485.85,-1822.4755 495.7407,-1826.2736 490.3773,-1817.1366 485.85,-1822.4755"/>
            <text text-anchor="middle" x="477.5825" y="-1764.4" font-family="Times,serif" font-size="14.00" fill="#000000">2@1</text>
        </g>
        <!-- n4_1&#45;&gt;n1_1 -->
        <g id="edge30" class="edge">
            <title>n4_1-&gt;n1_1</title>
            <path fill="none" stroke="#e7298a" d="M557.9495,-1715.1193C542.8314,-1724.5036 522.3706,-1740.1301 513.2436,-1760.2 505.2575,-1777.7612 506.0592,-1799.8973 508.3782,-1816.1996"/>
            <polygon fill="#e7298a" stroke="#e7298a" points="504.9926,-1817.1637 510.1368,-1826.4259 511.8913,-1815.9773 504.9926,-1817.1637"/>
            <text text-anchor="middle" x="526.5825" y="-1764.4" font-family="Times,serif" font-size="14.00" fill="#000000">4@1</text>
        </g>
        <!-- n4_1&#45;&gt;n2_1 -->
        <g id="edge1" class="edge">
            <title>n4_1-&gt;n2_1</title>
            <path fill="none" stroke="#1b9e77" d="M573.8348,-1690.4569C568.6607,-1657.3099 556.0153,-1576.3004 549.0089,-1531.4157"/>
            <polygon fill="#1b9e77" stroke="#1b9e77" points="552.4398,-1530.701 547.4393,-1521.3605 545.5236,-1531.7807 552.4398,-1530.701"/>
            <text text-anchor="middle" x="579.5825" y="-1582.6" font-family="Times,serif" font-size="14.00" fill="#000000">1@1</text>
        </g>
        <!-- n4_1&#45;&gt;n2_1 -->
        <g id="edge24" class="edge">
            <title>n4_1-&gt;n2_1</title>
            <path fill="none" stroke="#7570b3" d="M582.9079,-1690.4814C594.1122,-1663.967 613.7058,-1606.7737 597.1362,-1562 590.6171,-1544.3843 576.5843,-1528.4042 564.5953,-1517.1085"/>
            <polygon fill="#7570b3" stroke="#7570b3" points="566.8915,-1514.4664 557.1115,-1510.3919 562.216,-1519.676 566.8915,-1514.4664"/>
            <text text-anchor="middle" x="616.5825" y="-1582.6" font-family="Times,serif" font-size="14.00" fill="#000000">3@1</text>
        </g>
        <!-- n4_1&#45;&gt;n2_1 -->
        <g id="edge46" class="edge">
            <title>n4_1-&gt;n2_1</title>
            <path fill="none" stroke="#66a61e" d="M548.9055,-1695.5605C527.0414,-1686.2051 497.8273,-1669.6753 484.2436,-1644.4 466.9068,-1612.1413 470.4944,-1595.9433 484.2436,-1562 491.9547,-1542.9632 508.6546,-1526.5511 522.4661,-1515.4342"/>
            <polygon fill="#66a61e" stroke="#66a61e" points="524.7716,-1518.0772 530.5862,-1509.2205 520.5176,-1512.518 524.7716,-1518.0772"/>
            <text text-anchor="middle" x="497.5825" y="-1582.6" font-family="Times,serif" font-size="14.00" fill="#000000">5@1</text>
        </g>
        <!-- n1_2 -->
        <g id="node5" class="node">
            <title>n1_2</title>
            <polygon fill="none" stroke="#000000" points="722.1362,-1611.4016 690.1746,-1574.4992 754.0978,-1574.4992 722.1362,-1611.4016"/>
            <text text-anchor="middle" x="722.1362" y="-1582.6" font-family="Times,serif" font-size="14.00" fill="#000000">1</text>
        </g>
        <!-- n4_1&#45;&gt;n1_2 -->
        <g id="edge13" class="edge">
            <title>n4_1-&gt;n1_2</title>
            <path fill="none" stroke="#d95f02" d="M603.1892,-1693.471C625.2259,-1682.9515 656.1767,-1665.8787 678.1362,-1644.4 688.9258,-1633.8466 699.2634,-1620.5388 707.2041,-1609.3739"/>
            <polygon fill="#d95f02" stroke="#d95f02" points="710.2059,-1611.1868 713.0214,-1600.9729 704.451,-1607.2018 710.2059,-1611.1868"/>
            <text text-anchor="middle" x="681.5825" y="-1656.6" font-family="Times,serif" font-size="14.00" fill="#000000">2@1</text>
        </g>
        <!-- n2_2 -->
        <g id="node6" class="node">
            <title>n2_2</title>
            <polygon fill="none" stroke="#000000" points="800.1362,-1295.6016 768.1746,-1258.6992 832.0978,-1258.6992 800.1362,-1295.6016"/>
            <text text-anchor="middle" x="800.1362" y="-1266.8" font-family="Times,serif" font-size="14.00" fill="#000000">2</text>
        </g>
        <!-- n4_1&#45;&gt;n2_2 -->
        <g id="edge32" class="edge">
            <title>n4_1-&gt;n2_2</title>
            <path fill="none" stroke="#e7298a" d="M603.3654,-1700.9236C679.5163,-1688.2024 889.1362,-1647.6578 889.1362,-1586.8 889.1362,-1586.8 889.1362,-1586.8 889.1362,-1341.2 889.1362,-1309.0918 852.9854,-1289.3961 826.7638,-1279.3333"/>
            <polygon fill="#e7298a" stroke="#e7298a" points="827.8909,-1276.0193 817.2963,-1275.9424 825.5305,-1282.6094 827.8909,-1276.0193"/>
            <text text-anchor="middle" x="902.5825" y="-1444.8" font-family="Times,serif" font-size="14.00" fill="#000000">4@1</text>
        </g>
        <!-- n1_2&#45;&gt;n3_2 -->
        <g id="edge14" class="edge">
            <title>n1_2-&gt;n3_2</title>
            <path fill="none" stroke="#d95f02" d="M721.93,-1574.2767C721.4534,-1545.3336 720.2659,-1473.2082 719.6027,-1432.9332"/>
            <polygon fill="#d95f02" stroke="#d95f02" points="723.0987,-1432.6575 719.4345,-1422.7165 716.0997,-1432.7728 723.0987,-1432.6575"/>
            <text text-anchor="middle" x="733.5825" y="-1496" font-family="Times,serif" font-size="14.00" fill="#000000">2@2</text>
        </g>
        <!-- n2_2&#45;&gt;n3_2 -->
        <g id="edge33" class="edge">
            <title>n2_2-&gt;n3_2</title>
            <path fill="none" stroke="#e7298a" d="M791.1181,-1285.8743C777.1044,-1308.9882 749.9832,-1353.7215 733.3274,-1381.1934"/>
            <polygon fill="#e7298a" stroke="#e7298a" points="730.3057,-1379.4263 728.1141,-1389.792 736.2915,-1383.0554 730.3057,-1379.4263"/>
            <text text-anchor="middle" x="775.5825" y="-1337" font-family="Times,serif" font-size="14.00" fill="#000000">4@2</text>
        </g>
        <!-- n2_2&#45;&gt;n4_2 -->
        <g id="edge59" class="edge">
            <title>n2_2-&gt;n4_2</title>
            <path fill="none" stroke="#e6ab02" d="M803.2739,-1258.6707C808.7498,-1237.1537 820.1631,-1192.3062 827.4707,-1163.5915"/>
            <polygon fill="#e6ab02" stroke="#e6ab02" points="830.8841,-1164.3698 829.9586,-1153.8154 824.1004,-1162.6433 830.8841,-1164.3698"/>
            <text text-anchor="middle" x="832.5825" y="-1196.6" font-family="Times,serif" font-size="14.00" fill="#000000">6@3</text>
        </g>
        <!-- n2_2&#45;&gt;n3_3 -->
        <g id="edge35" class="edge">
            <title>n2_2-&gt;n3_3</title>
            <path fill="none" stroke="#e7298a" d="M776.9322,-1269.2453C716.3616,-1264.031 558.1362,-1246.077 558.1362,-1200.8 558.1362,-1200.8 558.1362,-1200.8 558.1362,-948.8 558.1362,-937.182 620.119,-903.143 657.4812,-883.6802"/>
            <polygon fill="#e7298a" stroke="#e7298a" points="659.1227,-886.7717 666.3969,-879.0686 655.9067,-880.5542 659.1227,-886.7717"/>
            <text text-anchor="middle" x="571.5825" y="-1088.8" font-family="Times,serif" font-size="14.00" fill="#000000">4@1</text>
        </g>
        <!-- n3_2&#45;&gt;n2_2 -->
        <g id="edge34" class="edge">
            <title>n3_2-&gt;n2_2</title>
            <path fill="none" stroke="#e7298a" d="M746.3992,-1391.7851C762.8768,-1382.5094 782.6608,-1368.3175 793.1362,-1349.6 800.9429,-1335.651 803.0874,-1318.0894 803.1095,-1303.1059"/>
            <polygon fill="#e7298a" stroke="#e7298a" points="806.5971,-1302.6313 802.8011,-1292.7398 799.6001,-1302.8395 806.5971,-1302.6313"/>
            <text text-anchor="middle" x="812.5825" y="-1337" font-family="Times,serif" font-size="14.00" fill="#000000">4@3</text>
        </g>
        <!-- n3_2&#45;&gt;n2_2 -->
        <g id="edge58" class="edge">
            <title>n3_2-&gt;n2_2</title>
            <path fill="none" stroke="#e6ab02" d="M716.0951,-1389.961C713.7095,-1374.7945 712.1335,-1350.8318 721.2436,-1332.8 732.7879,-1309.9502 757.1244,-1292.9509 775.7343,-1282.6254"/>
            <polygon fill="#e6ab02" stroke="#e6ab02" points="777.3671,-1285.7213 784.587,-1277.9674 774.1075,-1279.5265 777.3671,-1285.7213"/>
            <text text-anchor="middle" x="734.5825" y="-1337" font-family="Times,serif" font-size="14.00" fill="#000000">6@2</text>
        </g>
        <!-- n2_3 -->
        <g id="node10" class="node">
            <title>n2_3</title>
            <polygon fill="none" stroke="#000000" points="759.1362,-673.4016 727.1746,-636.4992 791.0978,-636.4992 759.1362,-673.4016"/>
            <text text-anchor="middle" x="759.1362" y="-644.6" font-family="Times,serif" font-size="14.00" fill="#000000">2</text>
        </g>
        <!-- n3_2&#45;&gt;n2_3 -->
        <g id="edge15" class="edge">
            <title>n3_2-&gt;n2_3</title>
            <path fill="none" stroke="#d95f02" d="M746.1594,-1398.0258C784.6025,-1387.2605 854.6726,-1362.17 893.1362,-1314.8 926.5453,-1273.6549 928.1362,-1253.8008 928.1362,-1200.8 928.1362,-1200.8 928.1362,-1200.8 928.1362,-948.8 928.1362,-849.1753 936.5427,-819.1343 900.1362,-726.4 893.1768,-708.6731 891.0037,-702.1308 875.1362,-691.6 845.1319,-671.6869 829.2018,-687.8637 796.1362,-673.6 790.722,-671.2644 785.2506,-668.12 780.2363,-664.8558"/>
            <polygon fill="#d95f02" stroke="#d95f02" points="782.0238,-661.8358 771.8156,-658.9997 778.0271,-667.5827 782.0238,-661.8358"/>
            <text text-anchor="middle" x="941.5825" y="-1088.8" font-family="Times,serif" font-size="14.00" fill="#000000">2@1</text>
        </g>
        <!-- n2_4 -->
        <g id="node14" class="node">
            <title>n2_4</title>
            <polygon fill="none" stroke="#000000" points="347.1362,-775.8016 315.1746,-738.8992 379.0978,-738.8992 347.1362,-775.8016"/>
            <text text-anchor="middle" x="347.1362" y="-747" font-family="Times,serif" font-size="14.00" fill="#000000">2</text>
        </g>
        <!-- n3_2&#45;&gt;n2_4 -->
        <g id="edge48" class="edge">
            <title>n3_2-&gt;n2_4</title>
            <path fill="none" stroke="#66a61e" d="M692.1188,-1402.533C610.3547,-1395.9196 371.1362,-1373.7863 371.1362,-1341.2 371.1362,-1341.2 371.1362,-1341.2 371.1362,-1227.7 371.1362,-1060.7786 356.264,-861.3817 349.9342,-784.075"/>
            <polygon fill="#66a61e" stroke="#66a61e" points="353.4128,-783.6705 349.1002,-773.9931 346.4367,-784.2476 353.4128,-783.6705"/>
            <text text-anchor="middle" x="383.5825" y="-1133.2" font-family="Times,serif" font-size="14.00" fill="#000000">5@1</text>
        </g>
        <!-- n1_3 -->
        <g id="node9" class="node">
            <title>n1_3</title>
            <polygon fill="none" stroke="#000000" points="759.1362,-1043.6016 727.1746,-1006.6992 791.0978,-1006.6992 759.1362,-1043.6016"/>
            <text text-anchor="middle" x="759.1362" y="-1014.8" font-family="Times,serif" font-size="14.00" fill="#000000">1</text>
        </g>
        <!-- n4_2&#45;&gt;n1_3 -->
        <g id="edge60" class="edge">
            <title>n4_2-&gt;n1_3</title>
            <path fill="none" stroke="#e6ab02" d="M824.6374,-1122.4046C811.8318,-1102.1888 788.9051,-1065.9953 773.8572,-1042.2396"/>
            <polygon fill="#e6ab02" stroke="#e6ab02" points="776.6313,-1040.0782 768.3233,-1033.5033 770.7178,-1043.8241 776.6313,-1040.0782"/>
            <text text-anchor="middle" x="822.5825" y="-1088.8" font-family="Times,serif" font-size="14.00" fill="#000000">6@1</text>
        </g>
        <!-- n4_2&#45;&gt;n2_3 -->
        <g id="edge5" class="edge">
            <title>n4_2-&gt;n2_3</title>
            <path fill="none" stroke="#1b9e77" d="M845.4194,-1122.6159C860.713,-1101.0614 886.1362,-1059.1867 886.1362,-1019 886.1362,-1019 886.1362,-1019 886.1362,-751.2 886.1362,-700.1987 823.3003,-670.2815 786.026,-657.0212"/>
            <polygon fill="#1b9e77" stroke="#1b9e77" points="786.8582,-653.6079 776.264,-653.7191 784.6152,-660.2389 786.8582,-653.6079"/>
            <text text-anchor="middle" x="899.5825" y="-909.8" font-family="Times,serif" font-size="14.00" fill="#000000">1@1</text>
        </g>
        <!-- n1_3&#45;&gt;n3_3 -->
        <g id="edge37" class="edge">
            <title>n1_3-&gt;n3_3</title>
            <path fill="none" stroke="#e7298a" d="M737.5092,-1006.6078C721.0501,-995.8624 699.5317,-978.6726 689.2436,-957.2 680.2121,-938.3502 679.686,-914.5251 681.1403,-896.4818"/>
            <polygon fill="#e7298a" stroke="#e7298a" points="684.6406,-896.6617 682.2095,-886.3496 677.6793,-895.927 684.6406,-896.6617"/>
            <text text-anchor="middle" x="702.5825" y="-944.6" font-family="Times,serif" font-size="14.00" fill="#000000">4@3</text>
        </g>
        <!-- n4_3 -->
        <g id="node12" class="node">
            <title>n4_3</title>
            <polygon fill="none" stroke="#000000" points="640.1362,-875.1623 613.1362,-887.6 586.1362,-875.1623 586.1614,-855.0377 640.111,-855.0377 640.1362,-875.1623"/>
            <text text-anchor="middle" x="613.1362" y="-865.4" font-family="Times,serif" font-size="14.00" fill="#000000">4</text>
        </g>
        <!-- n1_3&#45;&gt;n4_3 -->
        <g id="edge61" class="edge">
            <title>n1_3-&gt;n4_3</title>
            <path fill="none" stroke="#e6ab02" d="M727.0336,-1006.8197C703.7086,-996.5901 672.7594,-979.9759 652.2436,-957.2 636.3488,-939.5542 626.0277,-914.3876 620.0026,-895.5532"/>
            <polygon fill="#e6ab02" stroke="#e6ab02" points="623.312,-894.4038 617.0892,-885.8291 616.6065,-896.4129 623.312,-894.4038"/>
            <text text-anchor="middle" x="665.5825" y="-944.6" font-family="Times,serif" font-size="14.00" fill="#000000">6@2</text>
        </g>
        <!-- n4_4 -->
        <g id="node16" class="node">
            <title>n4_4</title>
            <polygon fill="none" stroke="#000000" points="543.1362,-574.5623 516.1362,-587 489.1362,-574.5623 489.1614,-554.4377 543.111,-554.4377 543.1362,-574.5623"/>
            <text text-anchor="middle" x="516.1362" y="-564.8" font-family="Times,serif" font-size="14.00" fill="#000000">4</text>
        </g>
        <!-- n1_3&#45;&gt;n4_4 -->
        <g id="edge8" class="edge">
            <title>n1_3-&gt;n4_4</title>
            <path fill="none" stroke="#1b9e77" d="M769.7091,-1006.4826C813.2607,-954.2426 974.7856,-753.466 938.1362,-691.6 902.4924,-631.4314 866.2376,-638.8328 800.1362,-616 714.9316,-586.5685 608.8047,-575.2783 553.5383,-571.1762"/>
            <polygon fill="#1b9e77" stroke="#1b9e77" points="553.7269,-567.6809 543.5057,-570.4697 553.2351,-574.6636 553.7269,-567.6809"/>
            <text text-anchor="middle" x="917.5825" y="-821" font-family="Times,serif" font-size="14.00" fill="#000000">1@1</text>
        </g>
        <!-- n2_3&#45;&gt;n3_3 -->
        <g id="edge6" class="edge">
            <title>n2_3-&gt;n3_3</title>
            <path fill="none" stroke="#1b9e77" d="M764.1221,-667.7415C771.2566,-698.6984 781.4174,-761.427 761.1362,-808.8 753.3368,-827.0178 736.7326,-841.3043 721.028,-851.4379"/>
            <polygon fill="#1b9e77" stroke="#1b9e77" points="719.1906,-848.4589 712.4574,-856.6391 722.8222,-854.4431 719.1906,-848.4589"/>
            <text text-anchor="middle" x="785.5825" y="-747" font-family="Times,serif" font-size="14.00" fill="#000000">1@2</text>
        </g>
        <!-- n2_3&#45;&gt;n3_3 -->
        <g id="edge16" class="edge">
            <title>n2_3-&gt;n3_3</title>
            <path fill="none" stroke="#d95f02" d="M740.4746,-652.0885C707.7583,-659.0228 641.3323,-678.6292 618.2436,-726.4 602.307,-759.3729 603.4264,-775.3091 618.2436,-808.8 625.3948,-824.9636 639.2007,-838.6729 652.4219,-848.9589"/>
            <polygon fill="#d95f02" stroke="#d95f02" points="650.3847,-851.8053 660.5137,-854.9124 654.5331,-846.1669 650.3847,-851.8053"/>
            <text text-anchor="middle" x="631.5825" y="-747" font-family="Times,serif" font-size="14.00" fill="#000000">2@2</text>
        </g>
        <!-- n2_3&#45;&gt;n3_3 -->
        <g id="edge18" class="edge">
            <title>n2_3-&gt;n3_3</title>
            <path fill="none" stroke="#d95f02" d="M744.2967,-656.6697C723.6247,-668.583 687.0363,-693.3563 672.2436,-726.4 654.8176,-765.3258 666.3947,-816.0785 676.0234,-845.5327"/>
            <polygon fill="#d95f02" stroke="#d95f02" points="672.7235,-846.6997 679.2971,-855.0085 679.3397,-844.4138 672.7235,-846.6997"/>
            <text text-anchor="middle" x="685.5825" y="-747" font-family="Times,serif" font-size="14.00" fill="#000000">2@4</text>
        </g>
        <!-- n3_3&#45;&gt;n1_3 -->
        <g id="edge7" class="edge">
            <title>n3_3-&gt;n1_3</title>
            <path fill="none" stroke="#1b9e77" d="M692.5453,-884.5584C705.7229,-911.1629 733.275,-966.7883 748.4839,-997.4939"/>
            <polygon fill="#1b9e77" stroke="#1b9e77" points="745.3794,-999.1117 752.9543,-1006.5192 751.6521,-996.0047 745.3794,-999.1117"/>
            <text text-anchor="middle" x="741.5825" y="-944.6" font-family="Times,serif" font-size="14.00" fill="#000000">1@3</text>
        </g>
        <!-- n3_3&#45;&gt;n1_3 -->
        <g id="edge36" class="edge">
            <title>n3_3-&gt;n1_3</title>
            <path fill="none" stroke="#e7298a" d="M702.171,-879.8514C720.201,-891.8082 747.6105,-913.4215 759.1362,-940.4 766.7153,-958.1406 765.9233,-980.258 763.6947,-996.5075"/>
            <polygon fill="#e7298a" stroke="#e7298a" points="760.1887,-996.2563 762.0074,-1006.6938 767.0946,-997.4002 760.1887,-996.2563"/>
            <text text-anchor="middle" x="776.5825" y="-944.6" font-family="Times,serif" font-size="14.00" fill="#000000">4@2</text>
        </g>
        <!-- n3_3&#45;&gt;n2_3 -->
        <g id="edge17" class="edge">
            <title>n3_3-&gt;n2_3</title>
            <path fill="none" stroke="#d95f02" d="M689.5001,-854.8824C697.2822,-828.8408 714.2432,-772.9927 730.2436,-726.4 736.0858,-709.3875 743.1194,-690.4671 748.784,-675.5681"/>
            <polygon fill="#d95f02" stroke="#d95f02" points="752.1521,-676.5591 752.4555,-665.9686 745.614,-674.0585 752.1521,-676.5591"/>
            <text text-anchor="middle" x="743.5825" y="-747" font-family="Times,serif" font-size="14.00" fill="#000000">2@3</text>
        </g>
        <!-- n1_4 -->
        <g id="node13" class="node">
            <title>n1_4</title>
            <polygon fill="none" stroke="#000000" points="183.1362,-775.8016 151.1746,-738.8992 215.0978,-738.8992 183.1362,-775.8016"/>
            <text text-anchor="middle" x="183.1362" y="-747" font-family="Times,serif" font-size="14.00" fill="#000000">1</text>
        </g>
        <!-- n3_3&#45;&gt;n1_4 -->
        <g id="edge26" class="edge">
            <title>n3_3-&gt;n1_4</title>
            <path fill="none" stroke="#7570b3" d="M658.4503,-854.8981C655.3736,-853.6143 652.2296,-852.4735 649.1362,-851.6 560.3101,-826.5172 533.7219,-845.8861 442.2436,-833.6 381.3026,-825.4152 364.7103,-827.5046 306.1362,-808.8 269.8475,-797.2119 230.3753,-777.3103 206.1897,-764.203"/>
            <polygon fill="#7570b3" stroke="#7570b3" points="207.8591,-761.1268 197.4096,-759.3778 204.4877,-767.2614 207.8591,-761.1268"/>
            <text text-anchor="middle" x="455.5825" y="-821" font-family="Times,serif" font-size="14.00" fill="#000000">3@1</text>
        </g>
        <!-- n3_3&#45;&gt;n2_4 -->
        <g id="edge38" class="edge">
            <title>n3_3-&gt;n2_4</title>
            <path fill="none" stroke="#e7298a" d="M658.0048,-854.8796C655.0651,-853.6349 652.0738,-852.5076 649.1362,-851.6 592.61,-834.1366 573.8783,-850.7082 517.2436,-833.6 461.731,-816.8308 401.7996,-783.9478 370.0031,-765.1889"/>
            <polygon fill="#e7298a" stroke="#e7298a" points="371.4542,-761.9787 361.0746,-759.8541 367.8638,-767.9878 371.4542,-761.9787"/>
            <text text-anchor="middle" x="530.5825" y="-821" font-family="Times,serif" font-size="14.00" fill="#000000">4@1</text>
        </g>
        <!-- n3_3&#45;&gt;n4_4 -->
        <g id="edge19" class="edge">
            <title>n3_3-&gt;n4_4</title>
            <path fill="none" stroke="#d95f02" d="M658.0567,-855.865C640.9707,-847.0583 621.5079,-836.7125 618.1362,-833.6 608.4979,-824.7028 607.5497,-820.7478 602.1362,-808.8 565.3607,-727.6355 584.3215,-696.9776 547.1362,-616 543.1489,-607.3169 537.6868,-598.4123 532.4575,-590.7213"/>
            <polygon fill="#d95f02" stroke="#d95f02" points="535.1595,-588.4803 526.5281,-582.3363 529.4442,-592.5219 535.1595,-588.4803"/>
            <text text-anchor="middle" x="586.5825" y="-695.8" font-family="Times,serif" font-size="14.00" fill="#000000">2@1</text>
        </g>
        <!-- n1_5 -->
        <g id="node17" class="node">
            <title>n1_5</title>
            <polygon fill="none" stroke="#000000" points="318.1362,-475.2016 286.1746,-438.2992 350.0978,-438.2992 318.1362,-475.2016"/>
            <text text-anchor="middle" x="318.1362" y="-446.4" font-family="Times,serif" font-size="14.00" fill="#000000">1</text>
        </g>
        <!-- n4_3&#45;&gt;n1_5 -->
        <g id="edge62" class="edge">
            <title>n4_3-&gt;n1_5</title>
            <path fill="none" stroke="#e6ab02" d="M585.9252,-868.4465C480.5172,-863.7306 103.0003,-844.4559 64.1362,-808.8 -22.9123,-728.9373 -19.5664,-626.3628 64.1362,-543 126.9684,-480.4229 235.4509,-459.8822 287.945,-453.4161"/>
            <polygon fill="#e6ab02" stroke="#e6ab02" points="288.4262,-456.884 297.9641,-452.2709 287.6313,-449.9292 288.4262,-456.884"/>
            <text text-anchor="middle" x="26.5825" y="-644.6" font-family="Times,serif" font-size="14.00" fill="#000000">6@1</text>
        </g>
        <!-- n3_5 -->
        <g id="node19" class="node">
            <title>n3_5</title>
            <polygon fill="none" stroke="#000000" points="214.1362,-306.7623 187.1362,-319.2 160.1362,-306.7623 160.1614,-286.6377 214.111,-286.6377 214.1362,-306.7623"/>
            <text text-anchor="middle" x="187.1362" y="-297" font-family="Times,serif" font-size="14.00" fill="#000000">3</text>
        </g>
        <!-- n1_4&#45;&gt;n3_5 -->
        <g id="edge27" class="edge">
            <title>n1_4-&gt;n3_5</title>
            <path fill="none" stroke="#7570b3" d="M158.3423,-738.8346C144.8271,-731.2874 128.4048,-720.7266 116.1362,-708.4 51.688,-643.6471 16.6905,-603.6153 43.2436,-516.2 67.8804,-435.0933 134.3952,-356.7236 167.6524,-321.1355"/>
            <polygon fill="#7570b3" stroke="#7570b3" points="170.2549,-323.4775 174.5949,-313.8123 165.1749,-318.6615 170.2549,-323.4775"/>
            <text text-anchor="middle" x="56.5825" y="-520.4" font-family="Times,serif" font-size="14.00" fill="#000000">3@1</text>
        </g>
        <!-- n3_4 -->
        <g id="node15" class="node">
            <title>n3_4</title>
            <polygon fill="none" stroke="#000000" points="279.1362,-574.5623 252.1362,-587 225.1362,-574.5623 225.1614,-554.4377 279.111,-554.4377 279.1362,-574.5623"/>
            <text text-anchor="middle" x="252.1362" y="-564.8" font-family="Times,serif" font-size="14.00" fill="#000000">3</text>
        </g>
        <!-- n2_4&#45;&gt;n3_4 -->
        <g id="edge21" class="edge">
            <title>n2_4-&gt;n3_4</title>
            <path fill="none" stroke="#d95f02" d="M346.8113,-738.5385C345.6027,-713.2167 339.9867,-655.3895 314.1362,-616 305.4891,-602.824 291.8447,-591.8952 279.5547,-583.9022"/>
            <polygon fill="#d95f02" stroke="#d95f02" points="281.2892,-580.8601 270.9359,-578.6108 277.6268,-586.8256 281.2892,-580.8601"/>
            <text text-anchor="middle" x="350.5825" y="-644.6" font-family="Times,serif" font-size="14.00" fill="#000000">2@3</text>
        </g>
        <!-- n2_4&#45;&gt;n3_4 -->
        <g id="edge39" class="edge">
            <title>n2_4-&gt;n3_4</title>
            <path fill="none" stroke="#e7298a" d="M334.0432,-738.6533C319.6757,-724.2107 296.8501,-699.1747 283.2436,-673.6 270.0137,-648.7333 261.6588,-617.4708 256.9785,-595.628"/>
            <polygon fill="#e7298a" stroke="#e7298a" points="260.3892,-594.8357 254.9709,-585.7312 253.5289,-596.2274 260.3892,-594.8357"/>
            <text text-anchor="middle" x="296.5825" y="-644.6" font-family="Times,serif" font-size="14.00" fill="#000000">4@2</text>
        </g>
        <!-- n2_4&#45;&gt;n3_4 -->
        <g id="edge41" class="edge">
            <title>n2_4-&gt;n3_4</title>
            <path fill="none" stroke="#e7298a" d="M320.8931,-745.7672C269.4758,-735.0776 159.7879,-712.0323 152.1362,-708.4 129.6464,-697.7238 119.077,-696.0145 108.2436,-673.6 97.1035,-650.551 93.2123,-636.7225 108.2436,-616 120.9025,-598.5482 176.4419,-584.1603 214.6963,-576.0777"/>
            <polygon fill="#e7298a" stroke="#e7298a" points="215.8854,-579.4067 224.9777,-573.9679 214.4782,-572.5496 215.8854,-579.4067"/>
            <text text-anchor="middle" x="121.5825" y="-644.6" font-family="Times,serif" font-size="14.00" fill="#000000">4@4</text>
        </g>
        <!-- n2_4&#45;&gt;n3_4 -->
        <g id="edge49" class="edge">
            <title>n2_4-&gt;n3_4</title>
            <path fill="none" stroke="#66a61e" d="M324.5624,-749.8634C283.6841,-746.0214 199.0575,-731.1473 171.2436,-673.6 160.1035,-650.551 158.474,-638.1878 171.2436,-616 181.2671,-598.5837 200.4953,-587.024 217.6903,-579.7279"/>
            <polygon fill="#66a61e" stroke="#66a61e" points="219.4446,-582.801 227.4946,-575.9127 216.906,-576.2775 219.4446,-582.801"/>
            <text text-anchor="middle" x="184.5825" y="-644.6" font-family="Times,serif" font-size="14.00" fill="#000000">5@2</text>
        </g>
        <!-- n2_4&#45;&gt;n4_4 -->
        <g id="edge51" class="edge">
            <title>n2_4-&gt;n4_4</title>
            <path fill="none" stroke="#66a61e" d="M358.7523,-738.6767C387.4365,-707.752 461.8467,-627.5299 497.0907,-589.5331"/>
            <polygon fill="#66a61e" stroke="#66a61e" points="499.7519,-591.8107 503.9864,-582.0988 494.6198,-587.0503 499.7519,-591.8107"/>
            <text text-anchor="middle" x="485.5825" y="-644.6" font-family="Times,serif" font-size="14.00" fill="#000000">5@4</text>
        </g>
        <!-- n3_4&#45;&gt;n2_4 -->
        <g id="edge40" class="edge">
            <title>n3_4-&gt;n2_4</title>
            <path fill="none" stroke="#e7298a" d="M279.3589,-571.5104C306.984,-575.6721 348.4056,-586.7171 368.1362,-616 391.4078,-650.5383 372.953,-701.1839 359.0109,-729.6734"/>
            <polygon fill="#e7298a" stroke="#e7298a" points="355.7975,-728.2692 354.3434,-738.7638 362.0246,-731.4666 355.7975,-728.2692"/>
            <text text-anchor="middle" x="392.5825" y="-644.6" font-family="Times,serif" font-size="14.00" fill="#000000">4@3</text>
        </g>
        <!-- n3_4&#45;&gt;n2_4 -->
        <g id="edge50" class="edge">
            <title>n3_4-&gt;n2_4</title>
            <path fill="none" stroke="#66a61e" d="M243.5125,-583.0534C231.8861,-603.9719 214.3692,-644.0077 230.2436,-673.6 246.4665,-703.842 280.2375,-724.3004 307.328,-736.5842"/>
            <polygon fill="#66a61e" stroke="#66a61e" points="306.0241,-739.8336 316.5919,-740.5909 308.8029,-733.4088 306.0241,-739.8336"/>
            <text text-anchor="middle" x="243.5825" y="-644.6" font-family="Times,serif" font-size="14.00" fill="#000000">5@3</text>
        </g>
        <!-- n3_4&#45;&gt;n1_5 -->
        <g id="edge22" class="edge">
            <title>n3_4-&gt;n1_5</title>
            <path fill="none" stroke="#d95f02" d="M260.4951,-554.0046C271.6416,-534.0086 291.502,-498.3802 304.7474,-474.6186"/>
            <polygon fill="#d95f02" stroke="#d95f02" points="307.8248,-476.2864 309.6367,-465.8477 301.7105,-472.8781 307.8248,-476.2864"/>
            <text text-anchor="middle" x="294.5825" y="-520.4" font-family="Times,serif" font-size="14.00" fill="#000000">2@1</text>
        </g>
        <!-- n2_5 -->
        <g id="node18" class="node">
            <title>n2_5</title>
            <polygon fill="none" stroke="#000000" points="227.1362,-192.2016 195.1746,-155.2992 259.0978,-155.2992 227.1362,-192.2016"/>
            <text text-anchor="middle" x="227.1362" y="-163.4" font-family="Times,serif" font-size="14.00" fill="#000000">2</text>
        </g>
        <!-- n3_4&#45;&gt;n2_5 -->
        <g id="edge42" class="edge">
            <title>n3_4-&gt;n2_5</title>
            <path fill="none" stroke="#e7298a" d="M238.4806,-554.2537C208.8714,-521.2944 138.961,-437.9361 108.2436,-354 91.6744,-308.7243 98.8309,-294.337 96.1362,-246.2 95.7189,-238.745 93.2788,-236.2983 96.1362,-229.4 100.7063,-218.3668 105.1157,-216.8967 115.1362,-210.4 141.6097,-193.2361 175.9962,-181.3933 199.6454,-174.5873"/>
            <polygon fill="#e7298a" stroke="#e7298a" points="200.6731,-177.9346 209.3785,-171.8959 198.8074,-171.1878 200.6731,-177.9346"/>
            <text text-anchor="middle" x="121.5825" y="-341.4" font-family="Times,serif" font-size="14.00" fill="#000000">4@1</text>
        </g>
        <!-- n4_4&#45;&gt;n2_4 -->
        <g id="edge20" class="edge">
            <title>n4_4-&gt;n2_4</title>
            <path fill="none" stroke="#d95f02" d="M517.4252,-586.4592C518.6054,-617.2354 515.8975,-680.517 477.1362,-708.4 448.5727,-728.9471 409.5562,-740.0443 381.737,-745.7491"/>
            <polygon fill="#d95f02" stroke="#d95f02" points="380.8302,-742.3591 371.6684,-747.6799 382.1486,-749.2338 380.8302,-742.3591"/>
            <text text-anchor="middle" x="529.5825" y="-644.6" font-family="Times,serif" font-size="14.00" fill="#000000">2@2</text>
        </g>
        <!-- n4_4&#45;&gt;n1_5 -->
        <g id="edge9" class="edge">
            <title>n4_4-&gt;n1_5</title>
            <path fill="none" stroke="#1b9e77" d="M491.4597,-554.244C452.8503,-531.1563 378.6996,-486.8157 341.1438,-464.3581"/>
            <polygon fill="#1b9e77" stroke="#1b9e77" points="342.807,-461.2746 332.4281,-459.1463 339.2144,-467.2824 342.807,-461.2746"/>
            <text text-anchor="middle" x="464.5825" y="-520.4" font-family="Times,serif" font-size="14.00" fill="#000000">1@1</text>
        </g>
        <!-- n4_4&#45;&gt;n2_5 -->
        <g id="edge52" class="edge">
            <title>n4_4-&gt;n2_5</title>
            <path fill="none" stroke="#66a61e" d="M512.1994,-554.1701C506.6342,-531.8664 497.1362,-488.2816 497.1362,-450.6 497.1362,-450.6 497.1362,-450.6 497.1362,-237.8 497.1362,-188.8522 328.8224,-173.436 257.9781,-169.1151"/>
            <polygon fill="#66a61e" stroke="#66a61e" points="258.0587,-165.6141 247.8743,-168.5344 257.657,-172.6025 258.0587,-165.6141"/>
            <text text-anchor="middle" x="510.5825" y="-341.4" font-family="Times,serif" font-size="14.00" fill="#000000">5@1</text>
        </g>
        <!-- n1_5&#45;&gt;n3_5 -->
        <g id="edge63" class="edge">
            <title>n1_5-&gt;n3_5</title>
            <path fill="none" stroke="#e6ab02" d="M307.1925,-438.1192C284.7259,-412.497 233.1908,-353.7234 205.5123,-322.1572"/>
            <polygon fill="#e6ab02" stroke="#e6ab02" points="207.926,-319.6011 198.7014,-314.3896 202.6627,-324.2161 207.926,-319.6011"/>
            <text text-anchor="middle" x="276.5825" y="-376.2" font-family="Times,serif" font-size="14.00" fill="#000000">6@2</text>
        </g>
        <!-- n4_5 -->
        <g id="node20" class="node">
            <title>n4_5</title>
            <polygon fill="none" stroke="#000000" points="357.1362,-39.5623 330.1362,-52 303.1362,-39.5623 303.1614,-19.4377 357.111,-19.4377 357.1362,-39.5623"/>
            <text text-anchor="middle" x="330.1362" y="-29.8" font-family="Times,serif" font-size="14.00" fill="#000000">4</text>
        </g>
        <!-- n1_5&#45;&gt;n4_5 -->
        <g id="edge10" class="edge">
            <title>n1_5-&gt;n4_5</title>
            <path fill="none" stroke="#1b9e77" d="M337.7724,-438.123C354.5986,-425.7353 376.1362,-405.0623 376.1362,-380.4 376.1362,-380.4 376.1362,-380.4 376.1362,-97.4 376.1362,-79.7745 364.3452,-63.745 352.7024,-52.2134"/>
            <polygon fill="#1b9e77" stroke="#1b9e77" points="354.9285,-49.5055 345.1983,-45.3134 350.1905,-54.6584 354.9285,-49.5055"/>
            <text text-anchor="middle" x="389.5825" y="-233.6" font-family="Times,serif" font-size="14.00" fill="#000000">1@2</text>
        </g>
        <!-- n1_5&#45;&gt;n4_5 -->
        <g id="edge23" class="edge">
            <title>n1_5-&gt;n4_5</title>
            <path fill="none" stroke="#d95f02" d="M342.3315,-447.5235C377.6424,-441.5274 439.1362,-424.7226 439.1362,-380.4 439.1362,-380.4 439.1362,-380.4 439.1362,-97.4 439.1362,-63.3243 398.8396,-47.2477 367.249,-39.88"/>
            <polygon fill="#d95f02" stroke="#d95f02" points="367.869,-36.4338 357.3603,-37.7822 366.4162,-43.2814 367.869,-36.4338"/>
            <text text-anchor="middle" x="452.5825" y="-233.6" font-family="Times,serif" font-size="14.00" fill="#000000">2@2</text>
        </g>
        <!-- n2_5&#45;&gt;n3_5 -->
        <g id="edge43" class="edge">
            <title>n2_5-&gt;n3_5</title>
            <path fill="none" stroke="#e7298a" d="M241.1511,-176.5389C261.3653,-190.6288 294.8536,-219.1859 281.1362,-246.2 269.778,-268.5681 244.9435,-282.5241 223.6527,-290.7792"/>
            <polygon fill="#e7298a" stroke="#e7298a" points="222.4095,-287.5068 214.1809,-294.1807 224.7754,-294.0948 222.4095,-287.5068"/>
            <text text-anchor="middle" x="297.5825" y="-233.6" font-family="Times,serif" font-size="14.00" fill="#000000">4@2</text>
        </g>
        <!-- n2_5&#45;&gt;n3_5 -->
        <g id="edge53" class="edge">
            <title>n2_5-&gt;n3_5</title>
            <path fill="none" stroke="#66a61e" d="M208.451,-170.7345C180.121,-176.6032 127.1768,-192.1977 104.2436,-229.4 88.8944,-254.2994 121.8223,-275.1722 150.6104,-287.8837"/>
            <polygon fill="#66a61e" stroke="#66a61e" points="149.5632,-291.2397 160.1389,-291.8757 152.2681,-284.7834 149.5632,-291.2397"/>
            <text text-anchor="middle" x="117.5825" y="-233.6" font-family="Times,serif" font-size="14.00" fill="#000000">5@2</text>
        </g>
        <!-- n2_5&#45;&gt;n4_5 -->
        <g id="edge29" class="edge">
            <title>n2_5-&gt;n4_5</title>
            <path fill="none" stroke="#7570b3" d="M245.4547,-155.176C261.1033,-143.8121 283.3637,-125.7694 298.1362,-105.8 308.4552,-91.8507 316.4174,-74.0473 321.8186,-59.6586"/>
            <polygon fill="#7570b3" stroke="#7570b3" points="325.24,-60.4836 325.2959,-49.8889 318.6453,-58.1363 325.24,-60.4836"/>
            <text text-anchor="middle" x="321.5825" y="-93.2" font-family="Times,serif" font-size="14.00" fill="#000000">3@3</text>
        </g>
        <!-- n2_5&#45;&gt;n4_5 -->
        <g id="edge45" class="edge">
            <title>n2_5-&gt;n4_5</title>
            <path fill="none" stroke="#e7298a" d="M221.2133,-155.0999C214.3599,-138.6394 205.5396,-109.4003 218.2436,-89 234.5068,-62.8842 267.2025,-48.8137 293.0706,-41.4636"/>
            <polygon fill="#e7298a" stroke="#e7298a" points="294.167,-44.7947 302.9568,-38.8794 292.3967,-38.0223 294.167,-44.7947"/>
            <text text-anchor="middle" x="231.5825" y="-93.2" font-family="Times,serif" font-size="14.00" fill="#000000">4@4</text>
        </g>
        <!-- n2_5&#45;&gt;n4_5 -->
        <g id="edge55" class="edge">
            <title>n2_5-&gt;n4_5</title>
            <path fill="none" stroke="#66a61e" d="M231.8014,-155.0446C238.2175,-138.7803 250.8573,-110.0249 267.2436,-89 278.3281,-74.7777 293.4777,-61.3988 306.1307,-51.3979"/>
            <polygon fill="#66a61e" stroke="#66a61e" points="308.6075,-53.909 314.4109,-45.045 304.3465,-48.3553 308.6075,-53.909"/>
            <text text-anchor="middle" x="280.5825" y="-93.2" font-family="Times,serif" font-size="14.00" fill="#000000">5@4</text>
        </g>
        <!-- n3_5&#45;&gt;n2_5 -->
        <g id="edge28" class="edge">
            <title>n3_5-&gt;n2_5</title>
            <path fill="none" stroke="#7570b3" d="M165.5946,-286.4361C147.8851,-272.351 127.3454,-250.2498 138.2436,-229.4 151.3975,-204.2347 179.9838,-187.2489 201.2072,-177.5525"/>
            <polygon fill="#7570b3" stroke="#7570b3" points="202.8441,-180.6585 210.6462,-173.4906 200.0771,-174.2286 202.8441,-180.6585"/>
            <text text-anchor="middle" x="151.5825" y="-233.6" font-family="Times,serif" font-size="14.00" fill="#000000">3@2</text>
        </g>
        <!-- n3_5&#45;&gt;n2_5 -->
        <g id="edge44" class="edge">
            <title>n3_5-&gt;n2_5</title>
            <path fill="none" stroke="#e7298a" d="M189.145,-286.4098C191.3456,-271.7413 195.3636,-248.7239 201.2436,-229.4 204.9771,-217.1303 210.2972,-203.9667 215.1448,-192.9548"/>
            <polygon fill="#e7298a" stroke="#e7298a" points="218.4735,-194.088 219.4048,-183.5341 212.0953,-191.2037 218.4735,-194.088"/>
            <text text-anchor="middle" x="214.5825" y="-233.6" font-family="Times,serif" font-size="14.00" fill="#000000">4@3</text>
        </g>
        <!-- n3_5&#45;&gt;n2_5 -->
        <g id="edge54" class="edge">
            <title>n3_5-&gt;n2_5</title>
            <path fill="none" stroke="#66a61e" d="M202.3553,-286.4087C211.784,-276.1352 223.0366,-261.5735 228.1362,-246.2 233.2187,-230.8781 233.3908,-212.9342 232.1052,-198.0626"/>
            <polygon fill="#66a61e" stroke="#66a61e" points="235.5536,-197.4058 230.9608,-187.8582 228.5972,-198.186 235.5536,-197.4058"/>
            <text text-anchor="middle" x="244.5825" y="-233.6" font-family="Times,serif" font-size="14.00" fill="#000000">5@3</text>
        </g>
    </g>
</svg>
